<svg width="835" height="790" viewBox="0 0 835 790" fill="none" xmlns="http://www.w3.org/2000/svg">
<g filter="url(#filter0_iii_116_669)">
<path d="M0 16C0 10.3995 0 7.59921 1.08993 5.46009C2.04867 3.57847 3.57847 2.04867 5.46009 1.08993C7.59921 0 10.3995 0 16 0H819C824.601 0 827.401 0 829.54 1.08993C831.422 2.04867 832.951 3.57847 833.91 5.46009C835 7.59921 835 10.3995 835 16V52H0V16Z" fill="#363636"/>
</g>
<path d="M735.008 27.3736C735.431 27.3736 735.779 27.0253 735.779 26.6107V18.2676L735.721 17.0402L736.227 17.6456L737.387 18.8813C737.519 19.0306 737.71 19.1052 737.901 19.1052C738.282 19.1052 738.597 18.8315 738.597 18.4417C738.597 18.2344 738.514 18.0851 738.373 17.9441L735.597 15.2654C735.398 15.0663 735.207 15 735.008 15C734.801 15 734.619 15.0663 734.42 15.2654L731.635 17.9441C731.494 18.0851 731.412 18.2344 731.412 18.4417C731.412 18.8315 731.718 19.1052 732.099 19.1052C732.29 19.1052 732.489 19.0306 732.622 18.8813L733.782 17.6456L734.296 17.0319L734.229 18.2676V26.6107C734.229 27.0253 734.577 27.3736 735.008 27.3736ZM730.227 34H739.773C741.572 34 742.5 33.0711 742.5 31.2964V23.144C742.5 21.3693 741.572 20.4404 739.773 20.4404H737.536V22.0908H739.666C740.42 22.0908 740.851 22.4889 740.851 23.285V31.1471C740.851 31.9433 740.42 32.3413 739.666 32.3413H730.334C729.572 32.3413 729.149 31.9433 729.149 31.1471V23.285C729.149 22.4889 729.572 22.0908 730.334 22.0908H732.489V20.4404H730.227C728.436 20.4404 727.5 21.361 727.5 23.144V31.2964C727.5 33.0711 728.436 34 730.227 34Z" fill="#B7B7B7"/>
<path d="M770 32C770.527 32 770.953 31.5723 770.953 31.087V25.9377H776.055C776.565 25.9377 777 25.5182 777 25C777 24.49 776.565 24.0623 776.055 24.0623H770.953V18.913C770.953 18.4195 770.527 18 770 18C769.481 18 769.047 18.4195 769.047 18.913V24.0623H763.945C763.452 24.0623 763 24.49 763 25C763 25.5182 763.452 25.9377 763.945 25.9377H769.047V31.087C769.047 31.5723 769.481 32 770 32Z" fill="#B7B7B7"/>
<path d="M800.728 30.0348H802.137V31.2867C802.137 33.061 803.074 33.9896 804.865 33.9896H813.272C815.063 33.9896 816 33.061 816 31.2867V22.8215C816 21.0472 815.063 20.1186 813.272 20.1186H811.863V18.8749C811.863 17.1006 810.926 16.172 809.135 16.172H800.728C798.929 16.172 798 17.1006 798 18.8749V27.3319C798 29.1145 798.929 30.0348 800.728 30.0348ZM800.836 28.3848C800.073 28.3848 799.65 27.9869 799.65 27.1826V19.0242C799.65 18.2199 800.073 17.8302 800.836 17.8302H809.027C809.782 17.8302 810.213 18.2199 810.213 19.0242V20.1186H804.865C803.074 20.1186 802.137 21.0472 802.137 22.8215V28.3848H800.836ZM804.973 32.3314C804.21 32.3314 803.795 31.9334 803.795 31.1375V22.9707C803.795 22.1748 804.21 21.7768 804.973 21.7768H813.164C813.927 21.7768 814.35 22.1748 814.35 22.9707V31.1375C814.35 31.9334 813.927 32.3314 813.164 32.3314H804.973Z" fill="#B7B7B7"/>
<path d="M100.731 33.5142H114.934C116.735 33.5142 117.673 32.5845 117.673 30.8081V20.7061C117.673 18.9297 116.735 18 114.934 18H100.731C98.938 18 98 18.9214 98 20.7061V30.8081C98 32.5845 98.938 33.5142 100.731 33.5142ZM100.839 31.8623C100.075 31.8623 99.6519 31.4639 99.6519 30.6587V20.8555C99.6519 20.0503 100.075 19.6519 100.839 19.6519H104.624V31.8623H100.839ZM114.826 19.6519C115.589 19.6519 116.013 20.0503 116.013 20.8555V30.6587C116.013 31.4639 115.589 31.8623 114.826 31.8623H106.193V19.6519H114.826ZM102.997 22.6899C103.296 22.6899 103.545 22.4326 103.545 22.1504C103.545 21.8682 103.296 21.6191 102.997 21.6191H101.295C100.997 21.6191 100.748 21.8682 100.748 22.1504C100.748 22.4326 100.997 22.6899 101.295 22.6899H102.997ZM102.997 24.9229C103.296 24.9229 103.545 24.6738 103.545 24.3833C103.545 24.1011 103.296 23.8521 102.997 23.8521H101.295C100.997 23.8521 100.748 24.1011 100.748 24.3833C100.748 24.6738 100.997 24.9229 101.295 24.9229H102.997ZM102.997 27.1475C103.296 27.1475 103.545 26.9067 103.545 26.6162C103.545 26.334 103.296 26.0933 102.997 26.0933H101.295C100.997 26.0933 100.748 26.334 100.748 26.6162C100.748 26.9067 100.997 27.1475 101.295 27.1475H102.997Z" fill="#B7B7B7"/>
<path d="M149.398 32.0938L143.32 26.1484C143.109 25.9375 143 25.7031 143 25.4297C143 25.1562 143.109 24.9062 143.328 24.7031L149.406 18.7656C149.578 18.5938 149.797 18.5 150.047 18.5C150.57 18.5 150.977 18.9062 150.977 19.4219C150.977 19.6719 150.875 19.9141 150.695 20.0938L145.227 25.4219L150.695 30.7656C150.875 30.9453 150.977 31.1797 150.977 31.4375C150.977 31.9531 150.57 32.3594 150.047 32.3594C149.797 32.3594 149.578 32.2656 149.398 32.0938Z" fill="#B7B7B7"/>
<path d="M179.43 32.3594C179.688 32.3594 179.898 32.2656 180.078 32.0938L186.156 26.1562C186.367 25.9375 186.477 25.7109 186.477 25.4297C186.477 25.1562 186.375 24.9141 186.156 24.7109L180.078 18.7656C179.898 18.5938 179.688 18.5 179.43 18.5C178.906 18.5 178.5 18.9062 178.5 19.4219C178.5 19.6719 178.609 19.9141 178.781 20.0938L184.258 25.4375L178.781 30.7656C178.602 30.9531 178.5 31.1797 178.5 31.4375C178.5 31.9531 178.906 32.3594 179.43 32.3594Z" fill="#5A5A5A"/>
<circle cx="26" cy="26" r="6" fill="#ED6A5E"/>
<circle cx="26" cy="26" r="5.5" stroke="black" stroke-opacity="0.1"/>
<circle cx="46" cy="26" r="6" fill="#F4BD50"/>
<circle cx="46" cy="26" r="5.5" stroke="black" stroke-opacity="0.1"/>
<circle cx="66" cy="26" r="6" fill="#61C454"/>
<circle cx="66" cy="26" r="5.5" stroke="black" stroke-opacity="0.1"/>
<path d="M255.284 21.6C255.284 18.2397 255.284 16.5595 255.938 15.2761C256.513 14.1471 257.431 13.2292 258.56 12.654C259.843 12 261.523 12 264.884 12H569.684C573.044 12 574.724 12 576.008 12.654C577.137 13.2292 578.054 14.1471 578.63 15.2761C579.284 16.5595 579.284 18.2397 579.284 21.6V30.4C579.284 33.7603 579.284 35.4405 578.63 36.7239C578.054 37.8529 577.137 38.7708 576.008 39.346C574.724 40 573.044 40 569.684 40H264.884C261.523 40 259.843 40 258.56 39.346C257.431 38.7708 256.513 37.8529 255.938 36.7239C255.284 35.4405 255.284 33.7603 255.284 30.4V21.6Z" fill="#434343"/>
<path d="M309.963 23.78C310.483 23.78 310.947 23.888 311.355 24.104C311.771 24.32 312.095 24.64 312.327 25.064C312.567 25.488 312.687 26 312.687 26.6V30.5H311.331V26.804C311.331 26.212 311.183 25.76 310.887 25.448C310.591 25.128 310.187 24.968 309.675 24.968C309.163 24.968 308.755 25.128 308.451 25.448C308.155 25.76 308.007 26.212 308.007 26.804V30.5H306.651V26.804C306.651 26.212 306.503 25.76 306.207 25.448C305.911 25.128 305.507 24.968 304.995 24.968C304.483 24.968 304.075 25.128 303.771 25.448C303.475 25.76 303.327 26.212 303.327 26.804V30.5H301.959V23.888H303.327V24.644C303.551 24.372 303.835 24.16 304.179 24.008C304.523 23.856 304.891 23.78 305.283 23.78C305.811 23.78 306.283 23.892 306.699 24.116C307.115 24.34 307.435 24.664 307.659 25.088C307.859 24.688 308.171 24.372 308.595 24.14C309.019 23.9 309.475 23.78 309.963 23.78ZM313.972 27.164C313.972 26.5 314.108 25.912 314.38 25.4C314.66 24.888 315.036 24.492 315.508 24.212C315.988 23.924 316.516 23.78 317.092 23.78C317.612 23.78 318.064 23.884 318.448 24.092C318.84 24.292 319.152 24.544 319.384 24.848V23.888H320.764V30.5H319.384V29.516C319.152 29.828 318.836 30.088 318.436 30.296C318.036 30.504 317.58 30.608 317.068 30.608C316.5 30.608 315.98 30.464 315.508 30.176C315.036 29.88 314.66 29.472 314.38 28.952C314.108 28.424 313.972 27.828 313.972 27.164ZM319.384 27.188C319.384 26.732 319.288 26.336 319.096 26C318.912 25.664 318.668 25.408 318.364 25.232C318.06 25.056 317.732 24.968 317.38 24.968C317.028 24.968 316.7 25.056 316.396 25.232C316.092 25.4 315.844 25.652 315.652 25.988C315.468 26.316 315.376 26.708 315.376 27.164C315.376 27.62 315.468 28.02 315.652 28.364C315.844 28.708 316.092 28.972 316.396 29.156C316.708 29.332 317.036 29.42 317.38 29.42C317.732 29.42 318.06 29.332 318.364 29.156C318.668 28.98 318.912 28.724 319.096 28.388C319.288 28.044 319.384 27.644 319.384 27.188ZM325.225 23.78C325.737 23.78 326.189 23.884 326.581 24.092C326.981 24.292 327.293 24.544 327.517 24.848V23.888H328.897V30.608C328.897 31.216 328.769 31.756 328.513 32.228C328.257 32.708 327.885 33.084 327.397 33.356C326.917 33.628 326.341 33.764 325.669 33.764C324.773 33.764 324.029 33.552 323.437 33.128C322.845 32.712 322.509 32.144 322.429 31.424H323.785C323.889 31.768 324.109 32.044 324.445 32.252C324.789 32.468 325.197 32.576 325.669 32.576C326.221 32.576 326.665 32.408 327.001 32.072C327.345 31.736 327.517 31.248 327.517 30.608V29.504C327.285 29.816 326.969 30.08 326.569 30.296C326.177 30.504 325.729 30.608 325.225 30.608C324.649 30.608 324.121 30.464 323.641 30.176C323.169 29.88 322.793 29.472 322.513 28.952C322.241 28.424 322.105 27.828 322.105 27.164C322.105 26.5 322.241 25.912 322.513 25.4C322.793 24.888 323.169 24.492 323.641 24.212C324.121 23.924 324.649 23.78 325.225 23.78ZM327.517 27.188C327.517 26.732 327.421 26.336 327.229 26C327.045 25.664 326.801 25.408 326.497 25.232C326.193 25.056 325.865 24.968 325.513 24.968C325.161 24.968 324.833 25.056 324.529 25.232C324.225 25.4 323.977 25.652 323.785 25.988C323.601 26.316 323.509 26.708 323.509 27.164C323.509 27.62 323.601 28.02 323.785 28.364C323.977 28.708 324.225 28.972 324.529 29.156C324.841 29.332 325.169 29.42 325.513 29.42C325.865 29.42 326.193 29.332 326.497 29.156C326.801 28.98 327.045 28.724 327.229 28.388C327.421 28.044 327.517 27.644 327.517 27.188ZM334.029 23.78C334.549 23.78 335.013 23.888 335.421 24.104C335.837 24.32 336.161 24.64 336.393 25.064C336.625 25.488 336.741 26 336.741 26.6V30.5H335.385V26.804C335.385 26.212 335.237 25.76 334.941 25.448C334.645 25.128 334.241 24.968 333.729 24.968C333.217 24.968 332.809 25.128 332.505 25.448C332.209 25.76 332.061 26.212 332.061 26.804V30.5H330.693V23.888H332.061V24.644C332.285 24.372 332.569 24.16 332.913 24.008C333.265 23.856 333.637 23.78 334.029 23.78ZM344.474 23.888V30.5H343.106V29.72C342.89 29.992 342.606 30.208 342.254 30.368C341.91 30.52 341.542 30.596 341.15 30.596C340.63 30.596 340.162 30.488 339.746 30.272C339.338 30.056 339.014 29.736 338.774 29.312C338.542 28.888 338.426 28.376 338.426 27.776V23.888H339.782V27.572C339.782 28.164 339.93 28.62 340.226 28.94C340.522 29.252 340.926 29.408 341.438 29.408C341.95 29.408 342.354 29.252 342.65 28.94C342.954 28.62 343.106 28.164 343.106 27.572V23.888H344.474ZM354.283 23.78C354.803 23.78 355.267 23.888 355.675 24.104C356.091 24.32 356.415 24.64 356.647 25.064C356.887 25.488 357.007 26 357.007 26.6V30.5H355.651V26.804C355.651 26.212 355.503 25.76 355.207 25.448C354.911 25.128 354.507 24.968 353.995 24.968C353.483 24.968 353.075 25.128 352.771 25.448C352.475 25.76 352.327 26.212 352.327 26.804V30.5H350.971V26.804C350.971 26.212 350.823 25.76 350.527 25.448C350.231 25.128 349.827 24.968 349.315 24.968C348.803 24.968 348.395 25.128 348.091 25.448C347.795 25.76 347.647 26.212 347.647 26.804V30.5H346.279V23.888H347.647V24.644C347.871 24.372 348.155 24.16 348.499 24.008C348.843 23.856 349.211 23.78 349.603 23.78C350.131 23.78 350.603 23.892 351.019 24.116C351.435 24.34 351.755 24.664 351.979 25.088C352.179 24.688 352.491 24.372 352.915 24.14C353.339 23.9 353.795 23.78 354.283 23.78ZM361.616 30.608C360.992 30.608 360.428 30.468 359.924 30.188C359.42 29.9 359.024 29.5 358.736 28.988C358.448 28.468 358.304 27.868 358.304 27.188C358.304 26.516 358.452 25.92 358.748 25.4C359.044 24.88 359.448 24.48 359.96 24.2C360.472 23.92 361.044 23.78 361.676 23.78C362.308 23.78 362.88 23.92 363.392 24.2C363.904 24.48 364.308 24.88 364.604 25.4C364.9 25.92 365.048 26.516 365.048 27.188C365.048 27.86 364.896 28.456 364.592 28.976C364.288 29.496 363.872 29.9 363.344 30.188C362.824 30.468 362.248 30.608 361.616 30.608ZM361.616 29.42C361.968 29.42 362.296 29.336 362.6 29.168C362.912 29 363.164 28.748 363.356 28.412C363.548 28.076 363.644 27.668 363.644 27.188C363.644 26.708 363.552 26.304 363.368 25.976C363.184 25.64 362.94 25.388 362.636 25.22C362.332 25.052 362.004 24.968 361.652 24.968C361.3 24.968 360.972 25.052 360.668 25.22C360.372 25.388 360.136 25.64 359.96 25.976C359.784 26.304 359.696 26.708 359.696 27.188C359.696 27.9 359.876 28.452 360.236 28.844C360.604 29.228 361.064 29.42 361.616 29.42ZM367.768 24.86C368 24.556 368.316 24.3 368.716 24.092C369.116 23.884 369.568 23.78 370.072 23.78C370.648 23.78 371.172 23.924 371.644 24.212C372.124 24.492 372.5 24.888 372.772 25.4C373.044 25.912 373.18 26.5 373.18 27.164C373.18 27.828 373.044 28.424 372.772 28.952C372.5 29.472 372.124 29.88 371.644 30.176C371.172 30.464 370.648 30.608 370.072 30.608C369.568 30.608 369.12 30.508 368.728 30.308C368.336 30.1 368.016 29.844 367.768 29.54V33.644H366.4V23.888H367.768V24.86ZM371.788 27.164C371.788 26.708 371.692 26.316 371.5 25.988C371.316 25.652 371.068 25.4 370.756 25.232C370.452 25.056 370.124 24.968 369.772 24.968C369.428 24.968 369.1 25.056 368.788 25.232C368.484 25.408 368.236 25.664 368.044 26C367.86 26.336 367.768 26.732 367.768 27.188C367.768 27.644 367.86 28.044 368.044 28.388C368.236 28.724 368.484 28.98 368.788 29.156C369.1 29.332 369.428 29.42 369.772 29.42C370.124 29.42 370.452 29.332 370.756 29.156C371.068 28.972 371.316 28.708 371.5 28.364C371.692 28.02 371.788 27.62 371.788 27.164ZM380.521 23.888V30.5H379.153V29.72C378.937 29.992 378.653 30.208 378.301 30.368C377.957 30.52 377.589 30.596 377.197 30.596C376.677 30.596 376.209 30.488 375.793 30.272C375.385 30.056 375.061 29.736 374.821 29.312C374.589 28.888 374.473 28.376 374.473 27.776V23.888H375.829V27.572C375.829 28.164 375.977 28.62 376.273 28.94C376.569 29.252 376.973 29.408 377.485 29.408C377.997 29.408 378.401 29.252 378.697 28.94C379.001 28.62 379.153 28.164 379.153 27.572V23.888H380.521ZM384.726 30.608C384.206 30.608 383.738 30.516 383.322 30.332C382.914 30.14 382.59 29.884 382.35 29.564C382.11 29.236 381.982 28.872 381.966 28.472H383.382C383.406 28.752 383.538 28.988 383.778 29.18C384.026 29.364 384.334 29.456 384.702 29.456C385.086 29.456 385.382 29.384 385.59 29.24C385.806 29.088 385.914 28.896 385.914 28.664C385.914 28.416 385.794 28.232 385.554 28.112C385.322 27.992 384.95 27.86 384.438 27.716C383.942 27.58 383.538 27.448 383.226 27.32C382.914 27.192 382.642 26.996 382.41 26.732C382.186 26.468 382.074 26.12 382.074 25.688C382.074 25.336 382.178 25.016 382.386 24.728C382.594 24.432 382.89 24.2 383.274 24.032C383.666 23.864 384.114 23.78 384.618 23.78C385.37 23.78 385.974 23.972 386.43 24.356C386.894 24.732 387.142 25.248 387.174 25.904H385.806C385.782 25.608 385.662 25.372 385.446 25.196C385.23 25.02 384.938 24.932 384.57 24.932C384.21 24.932 383.934 25 383.742 25.136C383.55 25.272 383.454 25.452 383.454 25.676C383.454 25.852 383.518 26 383.646 26.12C383.774 26.24 383.93 26.336 384.114 26.408C384.298 26.472 384.57 26.556 384.93 26.66C385.41 26.788 385.802 26.92 386.106 27.056C386.418 27.184 386.686 27.376 386.91 27.632C387.134 27.888 387.25 28.228 387.258 28.652C387.258 29.028 387.154 29.364 386.946 29.66C386.738 29.956 386.442 30.188 386.058 30.356C385.682 30.524 385.238 30.608 384.726 30.608ZM392.156 23.78C392.66 23.78 393.108 23.888 393.5 24.104C393.9 24.32 394.212 24.64 394.436 25.064C394.668 25.488 394.784 26 394.784 26.6V30.5H393.428V26.804C393.428 26.212 393.28 25.76 392.984 25.448C392.688 25.128 392.284 24.968 391.772 24.968C391.26 24.968 390.852 25.128 390.548 25.448C390.252 25.76 390.104 26.212 390.104 26.804V30.5H388.736V21.62H390.104V24.656C390.336 24.376 390.628 24.16 390.98 24.008C391.34 23.856 391.732 23.78 392.156 23.78ZM402.517 23.888V30.5H401.149V29.72C400.933 29.992 400.649 30.208 400.297 30.368C399.953 30.52 399.585 30.596 399.193 30.596C398.673 30.596 398.205 30.488 397.789 30.272C397.381 30.056 397.057 29.736 396.817 29.312C396.585 28.888 396.469 28.376 396.469 27.776V23.888H397.825V27.572C397.825 28.164 397.973 28.62 398.269 28.94C398.565 29.252 398.969 29.408 399.481 29.408C399.993 29.408 400.397 29.252 400.693 28.94C400.997 28.62 401.149 28.164 401.149 27.572V23.888H402.517ZM405.69 24.872C405.922 24.552 406.238 24.292 406.638 24.092C407.046 23.884 407.498 23.78 407.994 23.78C408.578 23.78 409.106 23.92 409.578 24.2C410.05 24.48 410.422 24.88 410.694 25.4C410.966 25.912 411.102 26.5 411.102 27.164C411.102 27.828 410.966 28.424 410.694 28.952C410.422 29.472 410.046 29.88 409.566 30.176C409.094 30.464 408.57 30.608 407.994 30.608C407.482 30.608 407.026 30.508 406.626 30.308C406.234 30.108 405.922 29.852 405.69 29.54V30.5H404.322V21.62H405.69V24.872ZM409.71 27.164C409.71 26.708 409.614 26.316 409.422 25.988C409.238 25.652 408.99 25.4 408.678 25.232C408.374 25.056 408.046 24.968 407.694 24.968C407.35 24.968 407.022 25.056 406.71 25.232C406.406 25.408 406.158 25.664 405.966 26C405.782 26.336 405.69 26.732 405.69 27.188C405.69 27.644 405.782 28.044 405.966 28.388C406.158 28.724 406.406 28.98 406.71 29.156C407.022 29.332 407.35 29.42 407.694 29.42C408.046 29.42 408.374 29.332 408.678 29.156C408.99 28.972 409.238 28.708 409.422 28.364C409.614 28.02 409.71 27.62 409.71 27.164ZM413.007 30.584C412.759 30.584 412.551 30.5 412.383 30.332C412.215 30.164 412.131 29.956 412.131 29.708C412.131 29.46 412.215 29.252 412.383 29.084C412.551 28.916 412.759 28.832 413.007 28.832C413.247 28.832 413.451 28.916 413.619 29.084C413.787 29.252 413.871 29.46 413.871 29.708C413.871 29.956 413.787 30.164 413.619 30.332C413.451 30.5 413.247 30.584 413.007 30.584ZM414.894 27.188C414.894 26.508 415.03 25.912 415.302 25.4C415.582 24.88 415.966 24.48 416.454 24.2C416.942 23.92 417.502 23.78 418.134 23.78C418.934 23.78 419.594 23.972 420.114 24.356C420.642 24.732 420.998 25.272 421.182 25.976H419.706C419.586 25.648 419.394 25.392 419.13 25.208C418.866 25.024 418.534 24.932 418.134 24.932C417.574 24.932 417.126 25.132 416.79 25.532C416.462 25.924 416.298 26.476 416.298 27.188C416.298 27.9 416.462 28.456 416.79 28.856C417.126 29.256 417.574 29.456 418.134 29.456C418.926 29.456 419.45 29.108 419.706 28.412H421.182C420.99 29.084 420.63 29.62 420.102 30.02C419.574 30.412 418.918 30.608 418.134 30.608C417.502 30.608 416.942 30.468 416.454 30.188C415.966 29.9 415.582 29.5 415.302 28.988C415.03 28.468 414.894 27.868 414.894 27.188ZM425.413 30.608C424.789 30.608 424.225 30.468 423.721 30.188C423.217 29.9 422.821 29.5 422.533 28.988C422.245 28.468 422.101 27.868 422.101 27.188C422.101 26.516 422.249 25.92 422.545 25.4C422.841 24.88 423.245 24.48 423.757 24.2C424.269 23.92 424.841 23.78 425.473 23.78C426.105 23.78 426.677 23.92 427.189 24.2C427.701 24.48 428.105 24.88 428.401 25.4C428.697 25.92 428.845 26.516 428.845 27.188C428.845 27.86 428.693 28.456 428.389 28.976C428.085 29.496 427.669 29.9 427.141 30.188C426.621 30.468 426.045 30.608 425.413 30.608ZM425.413 29.42C425.765 29.42 426.093 29.336 426.397 29.168C426.709 29 426.961 28.748 427.153 28.412C427.345 28.076 427.441 27.668 427.441 27.188C427.441 26.708 427.349 26.304 427.165 25.976C426.981 25.64 426.737 25.388 426.433 25.22C426.129 25.052 425.801 24.968 425.449 24.968C425.097 24.968 424.769 25.052 424.465 25.22C424.169 25.388 423.933 25.64 423.757 25.976C423.581 26.304 423.493 26.708 423.493 27.188C423.493 27.9 423.673 28.452 424.033 28.844C424.401 29.228 424.861 29.42 425.413 29.42ZM438.201 23.78C438.721 23.78 439.185 23.888 439.593 24.104C440.009 24.32 440.333 24.64 440.565 25.064C440.805 25.488 440.925 26 440.925 26.6V30.5H439.569V26.804C439.569 26.212 439.421 25.76 439.125 25.448C438.829 25.128 438.425 24.968 437.913 24.968C437.401 24.968 436.993 25.128 436.689 25.448C436.393 25.76 436.245 26.212 436.245 26.804V30.5H434.889V26.804C434.889 26.212 434.741 25.76 434.445 25.448C434.149 25.128 433.745 24.968 433.233 24.968C432.721 24.968 432.313 25.128 432.009 25.448C431.713 25.76 431.565 26.212 431.565 26.804V30.5H430.197V23.888H431.565V24.644C431.789 24.372 432.073 24.16 432.417 24.008C432.761 23.856 433.129 23.78 433.521 23.78C434.049 23.78 434.521 23.892 434.937 24.116C435.353 24.34 435.673 24.664 435.897 25.088C436.097 24.688 436.409 24.372 436.833 24.14C437.257 23.9 437.713 23.78 438.201 23.78ZM447.106 19.172L443.842 32.6H442.498L445.75 19.172H447.106ZM451.386 29.276L453.258 23.888H454.71L452.19 30.5H450.558L448.05 23.888H449.514L451.386 29.276ZM456.44 23.012C456.192 23.012 455.984 22.928 455.816 22.76C455.648 22.592 455.564 22.384 455.564 22.136C455.564 21.888 455.648 21.68 455.816 21.512C455.984 21.344 456.192 21.26 456.44 21.26C456.68 21.26 456.884 21.344 457.052 21.512C457.22 21.68 457.304 21.888 457.304 22.136C457.304 22.384 457.22 22.592 457.052 22.76C456.884 22.928 456.68 23.012 456.44 23.012ZM457.112 23.888V30.5H455.744V23.888H457.112ZM460.276 24.848C460.476 24.512 460.74 24.252 461.068 24.068C461.404 23.876 461.8 23.78 462.256 23.78V25.196H461.908C461.372 25.196 460.964 25.332 460.684 25.604C460.412 25.876 460.276 26.348 460.276 27.02V30.5H458.908V23.888H460.276V24.848ZM465.11 25.004V28.664C465.11 28.912 465.166 29.092 465.278 29.204C465.398 29.308 465.598 29.36 465.878 29.36H466.718V30.5H465.638C465.022 30.5 464.55 30.356 464.222 30.068C463.894 29.78 463.73 29.312 463.73 28.664V25.004H462.95V23.888H463.73V22.244H465.11V23.888H466.718V25.004H465.11ZM473.967 23.888V30.5H472.599V29.72C472.383 29.992 472.099 30.208 471.747 30.368C471.403 30.52 471.035 30.596 470.643 30.596C470.123 30.596 469.655 30.488 469.239 30.272C468.831 30.056 468.507 29.736 468.267 29.312C468.035 28.888 467.919 28.376 467.919 27.776V23.888H469.275V27.572C469.275 28.164 469.423 28.62 469.719 28.94C470.015 29.252 470.419 29.408 470.931 29.408C471.443 29.408 471.847 29.252 472.143 28.94C472.447 28.62 472.599 28.164 472.599 27.572V23.888H473.967ZM475.316 27.164C475.316 26.5 475.452 25.912 475.724 25.4C476.004 24.888 476.38 24.492 476.852 24.212C477.332 23.924 477.86 23.78 478.436 23.78C478.956 23.78 479.408 23.884 479.792 24.092C480.184 24.292 480.496 24.544 480.728 24.848V23.888H482.108V30.5H480.728V29.516C480.496 29.828 480.18 30.088 479.78 30.296C479.38 30.504 478.924 30.608 478.412 30.608C477.844 30.608 477.324 30.464 476.852 30.176C476.38 29.88 476.004 29.472 475.724 28.952C475.452 28.424 475.316 27.828 475.316 27.164ZM480.728 27.188C480.728 26.732 480.632 26.336 480.44 26C480.256 25.664 480.012 25.408 479.708 25.232C479.404 25.056 479.076 24.968 478.724 24.968C478.372 24.968 478.044 25.056 477.74 25.232C477.436 25.4 477.188 25.652 476.996 25.988C476.812 26.316 476.72 26.708 476.72 27.164C476.72 27.62 476.812 28.02 476.996 28.364C477.188 28.708 477.436 28.972 477.74 29.156C478.052 29.332 478.38 29.42 478.724 29.42C479.076 29.42 479.404 29.332 479.708 29.156C480.012 28.98 480.256 28.724 480.44 28.388C480.632 28.044 480.728 27.644 480.728 27.188ZM485.272 21.62V30.5H483.904V21.62H485.272ZM495.072 23.78C495.592 23.78 496.056 23.888 496.464 24.104C496.88 24.32 497.204 24.64 497.436 25.064C497.676 25.488 497.796 26 497.796 26.6V30.5H496.44V26.804C496.44 26.212 496.292 25.76 495.996 25.448C495.7 25.128 495.296 24.968 494.784 24.968C494.272 24.968 493.864 25.128 493.56 25.448C493.264 25.76 493.116 26.212 493.116 26.804V30.5H491.76V26.804C491.76 26.212 491.612 25.76 491.316 25.448C491.02 25.128 490.616 24.968 490.104 24.968C489.592 24.968 489.184 25.128 488.88 25.448C488.584 25.76 488.436 26.212 488.436 26.804V30.5H487.068V23.888H488.436V24.644C488.66 24.372 488.944 24.16 489.288 24.008C489.632 23.856 490 23.78 490.392 23.78C490.92 23.78 491.392 23.892 491.808 24.116C492.224 24.34 492.544 24.664 492.768 25.088C492.968 24.688 493.28 24.372 493.704 24.14C494.128 23.9 494.584 23.78 495.072 23.78ZM505.525 23.888V30.5H504.157V29.72C503.941 29.992 503.657 30.208 503.305 30.368C502.961 30.52 502.593 30.596 502.201 30.596C501.681 30.596 501.213 30.488 500.797 30.272C500.389 30.056 500.065 29.736 499.825 29.312C499.593 28.888 499.477 28.376 499.477 27.776V23.888H500.833V27.572C500.833 28.164 500.981 28.62 501.277 28.94C501.573 29.252 501.977 29.408 502.489 29.408C503.001 29.408 503.405 29.252 503.701 28.94C504.005 28.62 504.157 28.164 504.157 27.572V23.888H505.525ZM509.73 30.608C509.21 30.608 508.742 30.516 508.326 30.332C507.918 30.14 507.594 29.884 507.354 29.564C507.114 29.236 506.986 28.872 506.97 28.472H508.386C508.41 28.752 508.542 28.988 508.782 29.18C509.03 29.364 509.338 29.456 509.706 29.456C510.09 29.456 510.386 29.384 510.594 29.24C510.81 29.088 510.918 28.896 510.918 28.664C510.918 28.416 510.798 28.232 510.558 28.112C510.326 27.992 509.954 27.86 509.442 27.716C508.946 27.58 508.542 27.448 508.23 27.32C507.918 27.192 507.646 26.996 507.414 26.732C507.19 26.468 507.078 26.12 507.078 25.688C507.078 25.336 507.182 25.016 507.39 24.728C507.598 24.432 507.894 24.2 508.278 24.032C508.67 23.864 509.118 23.78 509.622 23.78C510.374 23.78 510.978 23.972 511.434 24.356C511.898 24.732 512.146 25.248 512.178 25.904H510.81C510.786 25.608 510.666 25.372 510.45 25.196C510.234 25.02 509.942 24.932 509.574 24.932C509.214 24.932 508.938 25 508.746 25.136C508.554 25.272 508.458 25.452 508.458 25.676C508.458 25.852 508.522 26 508.65 26.12C508.778 26.24 508.934 26.336 509.118 26.408C509.302 26.472 509.574 26.556 509.934 26.66C510.414 26.788 510.806 26.92 511.11 27.056C511.422 27.184 511.69 27.376 511.914 27.632C512.138 27.888 512.254 28.228 512.262 28.652C512.262 29.028 512.158 29.364 511.95 29.66C511.742 29.956 511.446 30.188 511.062 30.356C510.686 30.524 510.242 30.608 509.73 30.608ZM519.8 27.032C519.8 27.28 519.784 27.504 519.752 27.704H514.7C514.74 28.232 514.936 28.656 515.288 28.976C515.64 29.296 516.072 29.456 516.584 29.456C517.32 29.456 517.84 29.148 518.144 28.532H519.62C519.42 29.14 519.056 29.64 518.528 30.032C518.008 30.416 517.36 30.608 516.584 30.608C515.952 30.608 515.384 30.468 514.88 30.188C514.384 29.9 513.992 29.5 513.704 28.988C513.424 28.468 513.284 27.868 513.284 27.188C513.284 26.508 513.42 25.912 513.692 25.4C513.972 24.88 514.36 24.48 514.856 24.2C515.36 23.92 515.936 23.78 516.584 23.78C517.208 23.78 517.764 23.916 518.252 24.188C518.74 24.46 519.12 24.844 519.392 25.34C519.664 25.828 519.8 26.392 519.8 27.032ZM518.372 26.6C518.364 26.096 518.184 25.692 517.832 25.388C517.48 25.084 517.044 24.932 516.524 24.932C516.052 24.932 515.648 25.084 515.312 25.388C514.976 25.684 514.776 26.088 514.712 26.6H518.372ZM527.135 23.888V30.5H525.767V29.72C525.551 29.992 525.267 30.208 524.915 30.368C524.571 30.52 524.203 30.596 523.811 30.596C523.291 30.596 522.823 30.488 522.407 30.272C521.999 30.056 521.675 29.736 521.435 29.312C521.203 28.888 521.087 28.376 521.087 27.776V23.888H522.443V27.572C522.443 28.164 522.591 28.62 522.887 28.94C523.183 29.252 523.587 29.408 524.099 29.408C524.611 29.408 525.015 29.252 525.311 28.94C525.615 28.62 525.767 28.164 525.767 27.572V23.888H527.135ZM536.944 23.78C537.464 23.78 537.928 23.888 538.336 24.104C538.752 24.32 539.076 24.64 539.308 25.064C539.548 25.488 539.668 26 539.668 26.6V30.5H538.312V26.804C538.312 26.212 538.164 25.76 537.868 25.448C537.572 25.128 537.168 24.968 536.656 24.968C536.144 24.968 535.736 25.128 535.432 25.448C535.136 25.76 534.988 26.212 534.988 26.804V30.5H533.632V26.804C533.632 26.212 533.484 25.76 533.188 25.448C532.892 25.128 532.488 24.968 531.976 24.968C531.464 24.968 531.056 25.128 530.752 25.448C530.456 25.76 530.308 26.212 530.308 26.804V30.5H528.94V23.888H530.308V24.644C530.532 24.372 530.816 24.16 531.16 24.008C531.504 23.856 531.872 23.78 532.264 23.78C532.792 23.78 533.264 23.892 533.68 24.116C534.096 24.34 534.416 24.664 534.64 25.088C534.84 24.688 535.152 24.372 535.576 24.14C536 23.9 536.456 23.78 536.944 23.78Z" fill="white"/>
<path d="M567.114 24.7324C567.284 24.7324 567.418 24.6797 567.524 24.5684L569.926 22.1484C570.055 22.0195 570.114 21.8789 570.114 21.7148C570.114 21.5566 570.049 21.4043 569.926 21.2871L567.524 18.8438C567.418 18.7266 567.284 18.668 567.114 18.668C566.797 18.668 566.545 18.9316 566.545 19.2539C566.545 19.4121 566.604 19.541 566.704 19.6523L568.104 21.0234C567.829 20.9824 567.547 20.959 567.266 20.959C564.366 20.959 562.045 23.2793 562.045 26.1855C562.045 29.0918 564.383 31.4297 567.284 31.4297C570.19 31.4297 572.522 29.0918 572.522 26.1855C572.522 25.834 572.276 25.582 571.924 25.582C571.584 25.582 571.356 25.834 571.356 26.1855C571.356 28.4473 569.545 30.2637 567.284 30.2637C565.028 30.2637 563.211 28.4473 563.211 26.1855C563.211 23.9062 565.01 22.1016 567.266 22.1016C567.647 22.1016 567.999 22.1309 568.309 22.1836L566.709 23.7656C566.604 23.8711 566.545 24 566.545 24.1582C566.545 24.4805 566.797 24.7324 567.114 24.7324Z" fill="#E3E3E3"/>
<path d="M232.284 34C232.433 34 232.656 33.9499 232.863 33.8329C237.629 31.2182 239.284 30.0069 239.284 26.9661V20.659C239.284 19.6565 238.895 19.2973 238.067 18.9381C237.149 18.5455 234.063 17.4595 233.161 17.1504C232.888 17.0585 232.565 17 232.284 17C232.002 17 231.68 17.0752 231.407 17.1504C230.505 17.4093 227.418 18.5538 226.5 18.9381C225.673 19.2889 225.284 19.6565 225.284 20.659V26.9661C225.284 30.0069 226.947 31.2015 231.696 33.8329C231.911 33.9499 232.135 34 232.284 34ZM232.73 18.6875C233.814 19.1219 236.173 19.9656 237.414 20.4084C237.645 20.5002 237.703 20.6256 237.703 20.9263V26.657C237.703 29.1047 236.487 29.7646 232.755 32.0369C232.524 32.1789 232.408 32.229 232.292 32.229V18.5956C232.408 18.5956 232.532 18.6206 232.73 18.6875Z" fill="#B7B7B7"/>
<rect width="835" height="746" transform="translate(0 52)" fill="#363636"/>
<g filter="url(#filter1_f_116_669)">
<path d="M108.477 565.5C119.143 562.833 136.277 548.4 119.477 512C98.4768 466.5 83.9768 434.5 151.977 393.5C133.477 415.333 103.377 463.5 130.977 481.5C140.31 484.167 157.577 477.8 151.977 431C155.977 438.167 162.177 460.4 154.977 492C150.81 507.667 148.877 543.5 174.477 561.5C190.477 566.167 214.977 555.9 184.977 477.5C177.81 459.167 168.577 416.7 188.977 393.5C201.977 388.667 226.177 369.7 218.977 332.5C224.643 343 232.577 370.7 218.977 397.5C207.477 416.667 188.977 459 206.977 475C213.977 485.667 231.677 495.3 246.477 448.5C249.477 435.333 253.077 405.2 243.477 390C255.643 407.5 272.677 453 243.477 495C222.81 530.167 193.877 602.2 243.477 609C252.977 608 270.477 597.1 264.477 561.5C258.977 542.5 256.377 498.6 289.977 475C274.643 495.667 253.177 547.1 289.977 587.5C315.977 603 358.777 609.6 321.977 512C311.477 491.833 301.177 439.9 343.977 393.5C359.81 371.333 379.877 315.2 333.477 268C360.143 282.667 405.077 327.6 371.477 390C357.977 411.833 332.277 457.7 337.477 466.5C335.477 489 339.477 531 371.477 519C382.81 517.833 398.677 502.1 371.477 448.5C367.31 439.167 365.577 413 391.977 383C384.31 397.5 372.577 432.6 386.977 457C398.31 466.833 415.177 495.5 391.977 531.5C382.31 557 376.077 607.6 428.477 606C455.477 605.667 493.277 579 428.477 475C410.31 444.667 385.677 370.1 432.477 314.5C440.977 301.833 465.077 272.4 493.477 256C465.143 283.167 414.277 347.5 437.477 387.5C454.977 403.5 487.577 412.2 477.977 319C491.977 336.667 510.477 384.3 472.477 433.5C458.977 457.833 441.177 509 477.977 519C489.477 519.333 509.577 508 497.977 460C493.477 443.167 489.177 404.2 507.977 383C503.477 392.667 497.177 418 507.977 442C519.81 459 536.377 504.3 507.977 549.5C502.977 571.333 505.377 610.4 554.977 592C566.477 589.268 580.977 568.643 546.977 508C543.31 493.667 544.777 460.9 579.977 444.5C569.31 452.667 552.977 479 572.977 519C593.477 541.667 634.777 569.1 635.977 497.5C636.643 493 632.777 478.6 611.977 457C601.31 438.5 587.377 392.1 616.977 354.5C634.81 329.833 663.077 272.2 633.477 239C653.977 258.5 687.177 310.3 655.977 361.5C644.81 379 633.077 416.3 675.477 425.5C685.643 424.167 701.377 410.4 682.977 366C680.31 356.5 678.877 334.7 694.477 323.5C688.31 334.167 681.777 362.5 704.977 390.5C712.977 402.268 717.777 437.544 672.977 484.5C664.977 501.667 658.977 533.5 698.977 523.5C707.643 513.333 719.777 489.4 698.977 475C713.143 480.5 734.177 500.9 704.977 538.5C695.977 557.833 688.777 599.5 731.977 611.5" stroke="#42FF00" stroke-width="6"/>
</g>
<g filter="url(#filter2_f_116_669)">
<path d="M108.477 565.5C119.143 562.833 136.277 548.4 119.477 512C98.4768 466.5 83.9768 434.5 151.977 393.5C133.477 415.333 103.377 463.5 130.977 481.5C140.31 484.167 157.577 477.8 151.977 431C155.977 438.167 162.177 460.4 154.977 492C150.81 507.667 148.877 543.5 174.477 561.5C190.477 566.167 214.977 555.9 184.977 477.5C177.81 459.167 168.577 416.7 188.977 393.5C201.977 388.667 226.177 369.7 218.977 332.5C224.643 343 232.577 370.7 218.977 397.5C207.477 416.667 188.977 459 206.977 475C213.977 485.667 231.677 495.3 246.477 448.5C249.477 435.333 253.077 405.2 243.477 390C255.643 407.5 272.677 453 243.477 495C222.81 530.167 193.877 602.2 243.477 609C252.977 608 270.477 597.1 264.477 561.5C258.977 542.5 256.377 498.6 289.977 475C274.643 495.667 253.177 547.1 289.977 587.5C315.977 603 358.777 609.6 321.977 512C311.477 491.833 301.177 439.9 343.977 393.5C359.81 371.333 379.877 315.2 333.477 268C360.143 282.667 405.077 327.6 371.477 390C357.977 411.833 332.277 457.7 337.477 466.5C335.477 489 339.477 531 371.477 519C382.81 517.833 398.677 502.1 371.477 448.5C367.31 439.167 365.577 413 391.977 383C384.31 397.5 372.577 432.6 386.977 457C398.31 466.833 415.177 495.5 391.977 531.5C382.31 557 376.077 607.6 428.477 606C455.477 605.667 493.277 579 428.477 475C410.31 444.667 385.677 370.1 432.477 314.5C440.977 301.833 465.077 272.4 493.477 256C465.143 283.167 414.277 347.5 437.477 387.5C454.977 403.5 487.577 412.2 477.977 319C491.977 336.667 510.477 384.3 472.477 433.5C458.977 457.833 441.177 509 477.977 519C489.477 519.333 509.577 508 497.977 460C493.477 443.167 489.177 404.2 507.977 383C503.477 392.667 497.177 418 507.977 442C519.81 459 536.377 504.3 507.977 549.5C502.977 571.333 505.377 610.4 554.977 592C566.477 589.268 580.977 568.643 546.977 508C543.31 493.667 544.777 460.9 579.977 444.5C569.31 452.667 552.977 479 572.977 519C593.477 541.667 634.777 569.1 635.977 497.5C636.643 493 632.777 478.6 611.977 457C601.31 438.5 587.377 392.1 616.977 354.5C634.81 329.833 663.077 272.2 633.477 239C653.977 258.5 687.177 310.3 655.977 361.5C644.81 379 633.077 416.3 675.477 425.5C685.643 424.167 701.377 410.4 682.977 366C680.31 356.5 678.877 334.7 694.477 323.5C688.31 334.167 681.777 362.5 704.977 390.5C712.977 402.268 717.777 437.544 672.977 484.5C664.977 501.667 658.977 533.5 698.977 523.5C707.643 513.333 719.777 489.4 698.977 475C713.143 480.5 734.177 500.9 704.977 538.5C695.977 557.833 688.777 599.5 731.977 611.5" stroke="#42FF00" stroke-width="6"/>
</g>
<g filter="url(#filter3_f_116_669)">
<path d="M108.477 565.5C119.143 562.833 136.277 548.4 119.477 512C98.4768 466.5 83.9768 434.5 151.977 393.5C133.477 415.333 103.377 463.5 130.977 481.5C140.31 484.167 157.577 477.8 151.977 431C155.977 438.167 162.177 460.4 154.977 492C150.81 507.667 148.877 543.5 174.477 561.5C190.477 566.167 214.977 555.9 184.977 477.5C177.81 459.167 168.577 416.7 188.977 393.5C201.977 388.667 226.177 369.7 218.977 332.5C224.643 343 232.577 370.7 218.977 397.5C207.477 416.667 188.977 459 206.977 475C213.977 485.667 231.677 495.3 246.477 448.5C249.477 435.333 253.077 405.2 243.477 390C255.643 407.5 272.677 453 243.477 495C222.81 530.167 193.877 602.2 243.477 609C252.977 608 270.477 597.1 264.477 561.5C258.977 542.5 256.377 498.6 289.977 475C274.643 495.667 253.177 547.1 289.977 587.5C315.977 603 358.777 609.6 321.977 512C311.477 491.833 301.177 439.9 343.977 393.5C359.81 371.333 379.877 315.2 333.477 268C360.143 282.667 405.077 327.6 371.477 390C357.977 411.833 332.277 457.7 337.477 466.5C335.477 489 339.477 531 371.477 519C382.81 517.833 398.677 502.1 371.477 448.5C367.31 439.167 365.577 413 391.977 383C384.31 397.5 372.577 432.6 386.977 457C398.31 466.833 415.177 495.5 391.977 531.5C382.31 557 376.077 607.6 428.477 606C455.477 605.667 493.277 579 428.477 475C410.31 444.667 385.677 370.1 432.477 314.5C440.977 301.833 465.077 272.4 493.477 256C465.143 283.167 414.277 347.5 437.477 387.5C454.977 403.5 487.577 412.2 477.977 319C491.977 336.667 510.477 384.3 472.477 433.5C458.977 457.833 441.177 509 477.977 519C489.477 519.333 509.577 508 497.977 460C493.477 443.167 489.177 404.2 507.977 383C503.477 392.667 497.177 418 507.977 442C519.81 459 536.377 504.3 507.977 549.5C502.977 571.333 505.377 610.4 554.977 592C566.477 589.268 580.977 568.643 546.977 508C543.31 493.667 544.777 460.9 579.977 444.5C569.31 452.667 552.977 479 572.977 519C593.477 541.667 634.777 569.1 635.977 497.5C636.643 493 632.777 478.6 611.977 457C601.31 438.5 587.377 392.1 616.977 354.5C634.81 329.833 663.077 272.2 633.477 239C653.977 258.5 687.177 310.3 655.977 361.5C644.81 379 633.077 416.3 675.477 425.5C685.643 424.167 701.377 410.4 682.977 366C680.31 356.5 678.877 334.7 694.477 323.5C688.31 334.167 681.777 362.5 704.977 390.5C712.977 402.268 717.777 437.544 672.977 484.5C664.977 501.667 658.977 533.5 698.977 523.5C707.643 513.333 719.777 489.4 698.977 475C713.143 480.5 734.177 500.9 704.977 538.5C695.977 557.833 688.777 599.5 731.977 611.5" stroke="#42FF00" stroke-width="6"/>
</g>
<g filter="url(#filter4_f_116_669)">
<path d="M108.477 565.5C119.143 562.833 136.277 548.4 119.477 512C98.4768 466.5 83.9768 434.5 151.977 393.5C133.477 415.333 103.377 463.5 130.977 481.5C140.31 484.167 157.577 477.8 151.977 431C155.977 438.167 162.177 460.4 154.977 492C150.81 507.667 148.877 543.5 174.477 561.5C190.477 566.167 214.977 555.9 184.977 477.5C177.81 459.167 168.577 416.7 188.977 393.5C201.977 388.667 226.177 369.7 218.977 332.5C224.643 343 232.577 370.7 218.977 397.5C207.477 416.667 188.977 459 206.977 475C213.977 485.667 231.677 495.3 246.477 448.5C249.477 435.333 253.077 405.2 243.477 390C255.643 407.5 272.677 453 243.477 495C222.81 530.167 193.877 602.2 243.477 609C252.977 608 270.477 597.1 264.477 561.5C258.977 542.5 256.377 498.6 289.977 475C274.643 495.667 253.177 547.1 289.977 587.5C315.977 603 358.777 609.6 321.977 512C311.477 491.833 301.177 439.9 343.977 393.5C359.81 371.333 379.877 315.2 333.477 268C360.143 282.667 405.077 327.6 371.477 390C357.977 411.833 332.277 457.7 337.477 466.5C335.477 489 339.477 531 371.477 519C382.81 517.833 398.677 502.1 371.477 448.5C367.31 439.167 365.577 413 391.977 383C384.31 397.5 372.577 432.6 386.977 457C398.31 466.833 415.177 495.5 391.977 531.5C382.31 557 376.077 607.6 428.477 606C455.477 605.667 493.277 579 428.477 475C410.31 444.667 385.677 370.1 432.477 314.5C440.977 301.833 465.077 272.4 493.477 256C465.143 283.167 414.277 347.5 437.477 387.5C454.977 403.5 487.577 412.2 477.977 319C491.977 336.667 510.477 384.3 472.477 433.5C458.977 457.833 441.177 509 477.977 519C489.477 519.333 509.577 508 497.977 460C493.477 443.167 489.177 404.2 507.977 383C503.477 392.667 497.177 418 507.977 442C519.81 459 536.377 504.3 507.977 549.5C502.977 571.333 505.377 610.4 554.977 592C566.477 589.268 580.977 568.643 546.977 508C543.31 493.667 544.777 460.9 579.977 444.5C569.31 452.667 552.977 479 572.977 519C593.477 541.667 634.777 569.1 635.977 497.5C636.643 493 632.777 478.6 611.977 457C601.31 438.5 587.377 392.1 616.977 354.5C634.81 329.833 663.077 272.2 633.477 239C653.977 258.5 687.177 310.3 655.977 361.5C644.81 379 633.077 416.3 675.477 425.5C685.643 424.167 701.377 410.4 682.977 366C680.31 356.5 678.877 334.7 694.477 323.5C688.31 334.167 681.777 362.5 704.977 390.5C712.977 402.268 717.777 437.544 672.977 484.5C664.977 501.667 658.977 533.5 698.977 523.5C707.643 513.333 719.777 489.4 698.977 475C713.143 480.5 734.177 500.9 704.977 538.5C695.977 557.833 688.777 599.5 731.977 611.5" stroke="#42FF00" stroke-width="6"/>
</g>
<path d="M108.477 565.5C119.143 562.833 136.277 548.4 119.477 512C98.4768 466.5 83.9768 434.5 151.977 393.5C133.477 415.333 103.377 463.5 130.977 481.5C140.31 484.167 157.577 477.8 151.977 431C155.977 438.167 162.177 460.4 154.977 492C150.81 507.667 148.877 543.5 174.477 561.5C190.477 566.167 214.977 555.9 184.977 477.5C177.81 459.167 168.577 416.7 188.977 393.5C201.977 388.667 226.177 369.7 218.977 332.5C224.643 343 232.577 370.7 218.977 397.5C207.477 416.667 188.977 459 206.977 475C213.977 485.667 231.677 495.3 246.477 448.5C249.477 435.333 253.077 405.2 243.477 390C255.643 407.5 272.677 453 243.477 495C222.81 530.167 193.877 602.2 243.477 609C252.977 608 270.477 597.1 264.477 561.5C258.977 542.5 256.377 498.6 289.977 475C274.643 495.667 253.177 547.1 289.977 587.5C315.977 603 358.777 609.6 321.977 512C311.477 491.833 301.177 439.9 343.977 393.5C359.81 371.333 379.877 315.2 333.477 268C360.143 282.667 405.077 327.6 371.477 390C357.977 411.833 332.277 457.7 337.477 466.5C335.477 489 339.477 531 371.477 519C382.81 517.833 398.677 502.1 371.477 448.5C367.31 439.167 365.577 413 391.977 383C384.31 397.5 372.577 432.6 386.977 457C398.31 466.833 415.177 495.5 391.977 531.5C382.31 557 376.077 607.6 428.477 606C455.477 605.667 493.277 579 428.477 475C410.31 444.667 385.677 370.1 432.477 314.5C440.977 301.833 465.077 272.4 493.477 256C465.143 283.167 414.277 347.5 437.477 387.5C454.977 403.5 487.577 412.2 477.977 319C491.977 336.667 510.477 384.3 472.477 433.5C458.977 457.833 441.177 509 477.977 519C489.477 519.333 509.577 508 497.977 460C493.477 443.167 489.177 404.2 507.977 383C503.477 392.667 497.177 418 507.977 442C519.81 459 536.377 504.3 507.977 549.5C502.977 571.333 505.377 610.4 554.977 592C566.477 589.268 580.977 568.643 546.977 508C543.31 493.667 544.777 460.9 579.977 444.5C569.31 452.667 552.977 479 572.977 519C593.477 541.667 634.777 569.1 635.977 497.5C636.643 493 632.777 478.6 611.977 457C601.31 438.5 587.377 392.1 616.977 354.5C634.81 329.833 663.077 272.2 633.477 239C653.977 258.5 687.177 310.3 655.977 361.5C644.81 379 633.077 416.3 675.477 425.5C685.643 424.167 701.377 410.4 682.977 366C680.31 356.5 678.877 334.7 694.477 323.5C688.31 334.167 681.777 362.5 704.977 390.5C712.977 402.268 717.777 437.544 672.977 484.5C664.977 501.667 658.977 533.5 698.977 523.5C707.643 513.333 719.777 489.4 698.977 475C713.143 480.5 734.177 500.9 704.977 538.5C695.977 557.833 688.777 599.5 731.977 611.5" stroke="#AAFF8D" stroke-width="6"/>
<defs>
<filter id="filter0_iii_116_669" x="0" y="0" width="835" height="52" filterUnits="userSpaceOnUse" color-interpolation-filters="sRGB">
<feFlood flood-opacity="0" result="BackgroundImageFix"/>
<feBlend mode="normal" in="SourceGraphic" in2="BackgroundImageFix" result="shape"/>
<feColorMatrix in="SourceAlpha" type="matrix" values="0 0 0 0 0 0 0 0 0 0 0 0 0 0 0 0 0 0 127 0" result="hardAlpha"/>
<feOffset dx="-0.5"/>
<feComposite in2="hardAlpha" operator="arithmetic" k2="-1" k3="1"/>
<feColorMatrix type="matrix" values="0 0 0 0 0.290196 0 0 0 0 0.290196 0 0 0 0 0.290196 0 0 0 1 0"/>
<feBlend mode="normal" in2="shape" result="effect1_innerShadow_116_669"/>
<feColorMatrix in="SourceAlpha" type="matrix" values="0 0 0 0 0 0 0 0 0 0 0 0 0 0 0 0 0 0 127 0" result="hardAlpha"/>
<feOffset dx="0.5"/>
<feComposite in2="hardAlpha" operator="arithmetic" k2="-1" k3="1"/>
<feColorMatrix type="matrix" values="0 0 0 0 0.290196 0 0 0 0 0.290196 0 0 0 0 0.290196 0 0 0 1 0"/>
<feBlend mode="normal" in2="effect1_innerShadow_116_669" result="effect2_innerShadow_116_669"/>
<feColorMatrix in="SourceAlpha" type="matrix" values="0 0 0 0 0 0 0 0 0 0 0 0 0 0 0 0 0 0 127 0" result="hardAlpha"/>
<feOffset dy="1"/>
<feComposite in2="hardAlpha" operator="arithmetic" k2="-1" k3="1"/>
<feColorMatrix type="matrix" values="0 0 0 0 0.494118 0 0 0 0 0.494118 0 0 0 0 0.494118 0 0 0 1 0"/>
<feBlend mode="normal" in2="effect2_innerShadow_116_669" result="effect3_innerShadow_116_669"/>
</filter>
<filter id="filter1_f_116_669" x="89" y="226.826" width="653.78" height="397.564" filterUnits="userSpaceOnUse" color-interpolation-filters="sRGB">
<feFlood flood-opacity="0" result="BackgroundImageFix"/>
<feBlend mode="normal" in="SourceGraphic" in2="BackgroundImageFix" result="shape"/>
<feGaussianBlur stdDeviation="5" result="effect1_foregroundBlur_116_669"/>
</filter>
<filter id="filter2_f_116_669" x="84" y="221.826" width="663.78" height="407.564" filterUnits="userSpaceOnUse" color-interpolation-filters="sRGB">
<feFlood flood-opacity="0" result="BackgroundImageFix"/>
<feBlend mode="normal" in="SourceGraphic" in2="BackgroundImageFix" result="shape"/>
<feGaussianBlur stdDeviation="7.5" result="effect1_foregroundBlur_116_669"/>
</filter>
<filter id="filter3_f_116_669" x="74" y="211.826" width="683.78" height="427.564" filterUnits="userSpaceOnUse" color-interpolation-filters="sRGB">
<feFlood flood-opacity="0" result="BackgroundImageFix"/>
<feBlend mode="normal" in="SourceGraphic" in2="BackgroundImageFix" result="shape"/>
<feGaussianBlur stdDeviation="12.5" result="effect1_foregroundBlur_116_669"/>
</filter>
<filter id="filter4_f_116_669" x="49" y="186.826" width="733.78" height="477.564" filterUnits="userSpaceOnUse" color-interpolation-filters="sRGB">
<feFlood flood-opacity="0" result="BackgroundImageFix"/>
<feBlend mode="normal" in="SourceGraphic" in2="BackgroundImageFix" result="shape"/>
<feGaussianBlur stdDeviation="25" result="effect1_foregroundBlur_116_669"/>
</filter>
</defs>
</svg>
